# xmcd
#
# Track frame offsets:
#	150
#	14312
#	23625
#	35753
#	47654
#	62815
#	77318
#	88918
#	99696
#	115162
#	129470
#	141479
#	156167
#	168962
#
# Disc length: 2447 seconds
#
# Revision: 1
# Processed by: cddbd v1.5.2PL0 Copyright (c) Steve Scherf et al.
# Submitted via: audiograbber 1.83.01
#
DISCID=b4098d0e
DTITLE=Honey B and The Kings of Sting - Jumpin' From 6 to 6
DYEAR=2008
DGENRE=Rock and Roll
TTITLE0=Jumpin' From 6 to 6
TTITLE1=Black Diamond
TTITLE2=Daddy on My Mind
TTITLE3=Be My Guest
TTITLE4=Good Rockin' Daddy
TTITLE5=T Bone Shuffle
TTITLE6=Caledonia
TTITLE7=Jump Jack Jump
TTITLE8=Shake Yer Mother For Ya
TTITLE9=Ding Dong Daddy
TTITLE10=That Moves Me
TTITLE11=Rocket to the Moon
TTITLE12=The Chicken and The Hawk
TTITLE13=Rockabye Baby
EXTD=One of the UK's best Jump Jive R and B Bands for more info find them at www.
EXTD=kingsofsting.com
EXTT0=
EXTT1=
EXTT2=
EXTT3=
EXTT4=
EXTT5=
EXTT6=
EXTT7=
EXTT8=
EXTT9=
EXTT10=
EXTT11=
EXTT12=
EXTT13=
PLAYORDER=
